<!-- Generated by IcoMoon.io -->
<svg version="1.1" xmlns="http://www.w3.org/2000/svg" width="1917" height="1024" viewBox="0 0 1917 1024">
<title></title>
<g id="icomoon-ignore">
</g>
<path d="M372.087 272.73h-0.063c-51.976 0-94.112 37.99-94.112 84.85v0.057c0 46.86 42.137 84.848 94.112 84.848h0.063c51.976 0 94.112-37.988 94.112-84.848v-0.057c0-46.86-42.137-84.85-94.112-84.85z"></path>
<path d="M1066.733 245.607c-0.148-65.089-28.888-127.475-79.929-173.504s-120.228-71.955-192.42-72.103v0c-72.212 0.118-141.43 26.031-192.499 72.064-51.067 46.033-79.824 108.435-79.972 173.544v358.927c0 0 544.757-54.703 544.82-358.873v-0.054z"></path>
<path d="M87.149 722.34c0.131 45.289 20.139 88.691 55.652 120.721s83.645 50.082 133.875 50.215c50.22-0.133 98.341-18.177 133.852-50.196s55.527-75.406 55.675-120.684v-249.749c0 0-379.054 38.093-379.054 249.693zM276.676 767.089c-9.817 0-19.412-2.625-27.574-7.543-8.161-4.915-14.523-11.905-18.279-20.081s-4.739-17.175-2.824-25.855c1.915-8.68 6.641-16.652 13.582-22.911 6.941-6.257 15.785-10.519 25.413-12.247 9.628-1.726 19.606-0.839 28.674 2.547 9.070 3.388 16.82 9.122 22.273 16.482 5.453 7.358 8.364 16.009 8.364 24.859 0.026 5.891-1.24 11.728-3.723 17.177-2.484 5.447-6.135 10.401-10.745 14.573-4.612 4.172-10.092 7.484-16.125 9.743s-12.504 3.423-19.036 3.423v-0.168z"></path>
<path d="M623.309 686.625v92.936h-19.149v-92.936h19.149zM660.33 726.328v14.935h-42.254v-14.935h42.254zM664.798 686.625v15.001h-46.723v-15.001h46.723zM752.246 730.922v4.405c0 7.063-0.959 13.404-2.874 19.020s-4.617 10.406-8.107 14.362c-3.488 3.915-7.658 6.915-12.51 9-4.808 2.085-10.148 3.126-16.020 3.126-5.83 0-11.17-1.041-16.022-3.126-4.808-2.085-8.979-5.085-12.51-9-3.532-3.957-6.277-8.745-8.233-14.362-1.915-5.617-2.874-11.957-2.874-19.020v-4.405c0-7.107 0.959-13.447 2.874-19.020 1.915-5.617 4.617-10.406 8.105-14.362 3.534-3.957 7.704-6.978 12.512-9.063 4.85-2.085 10.19-3.129 16.020-3.129 5.874 0 11.214 1.044 16.022 3.129 4.85 2.085 9.020 5.107 12.51 9.063 3.532 3.957 6.255 8.745 8.17 14.362 1.956 5.573 2.937 11.913 2.937 19.020zM732.905 735.328v-4.532c0-4.937-0.447-9.277-1.342-13.022-0.893-3.745-2.211-6.893-3.957-9.447s-3.872-4.469-6.384-5.745c-2.51-1.318-5.381-1.978-8.617-1.978-3.233 0-6.107 0.66-8.617 1.978-2.468 1.277-4.573 3.192-6.318 5.745-1.704 2.553-3 5.702-3.893 9.447-0.895 3.745-1.342 8.085-1.342 13.022v4.532c0 4.893 0.447 9.233 1.342 13.020 0.893 3.745 2.211 6.915 3.957 9.51 1.745 2.553 3.872 4.49 6.384 5.808 2.51 1.32 5.381 1.98 8.617 1.98 3.233 0 6.107-0.66 8.617-1.98 2.51-1.318 4.617-3.255 6.318-5.808 1.704-2.595 3-5.765 3.893-9.51 0.895-3.787 1.342-8.127 1.342-13.020zM814.416 755.241c0-1.658-0.255-3.148-0.767-4.466-0.468-1.362-1.362-2.597-2.68-3.704-1.32-1.148-3.17-2.277-5.554-3.381-2.384-1.107-5.469-2.257-9.255-3.447-4.214-1.362-8.214-2.896-12-4.597-3.745-1.702-7.063-3.68-9.957-5.935-2.852-2.299-5.107-4.959-6.767-7.981-1.617-3.020-2.425-6.532-2.425-10.532 0-3.872 0.852-7.382 2.553-10.532 1.702-3.19 4.085-5.913 7.148-8.17 3.063-2.296 6.68-4.063 10.852-5.296 4.211-1.235 8.828-1.852 13.85-1.852 6.85 0 12.831 1.235 17.935 3.702 5.107 2.468 9.066 5.852 11.874 10.151 2.85 4.296 4.275 9.212 4.275 14.743h-19.020c0-2.723-0.575-5.107-1.723-7.148-1.107-2.085-2.808-3.723-5.107-4.915-2.255-1.192-5.107-1.787-8.554-1.787-3.318 0-6.085 0.51-8.297 1.532-2.214 0.978-3.872 2.318-4.978 4.022-1.107 1.658-1.66 3.532-1.66 5.617 0 1.573 0.383 3 1.148 4.277 0.808 1.277 2 2.466 3.575 3.573s3.51 2.15 5.808 3.129c2.299 0.978 4.957 1.935 7.978 2.872 5.063 1.532 9.51 3.255 13.34 5.17 3.872 1.915 7.107 4.063 9.702 6.447 2.597 2.384 4.554 5.085 5.874 8.107 1.318 3.022 1.978 6.447 1.978 10.277 0 4.042-0.789 7.658-2.362 10.85-1.575 3.192-3.852 5.893-6.83 8.107-2.978 2.211-6.532 3.893-10.66 5.042s-8.743 1.723-13.85 1.723c-4.595 0-9.127-0.595-13.595-1.787-4.469-1.233-8.532-3.085-12.192-5.554-3.617-2.468-6.51-5.617-8.68-9.447s-3.255-8.362-3.255-13.595h19.212c0 2.893 0.447 5.34 1.34 7.34s2.148 3.617 3.767 4.852c1.658 1.233 3.617 2.126 5.872 2.68 2.299 0.553 4.808 0.83 7.532 0.83 3.318 0 6.042-0.468 8.17-1.403 2.17-0.937 3.767-2.235 4.787-3.896 1.065-1.658 1.597-3.532 1.597-5.617zM888.139 686.625v92.936h-19.086v-92.936h19.086zM916.735 686.625v15.001h-75.83v-15.001h75.83zM990.010 764.625v14.935h-49.468v-14.935h49.468zM946.797 686.625v92.936h-19.149v-92.936h19.149zM983.563 724.476v14.554h-43.021v-14.554h43.021zM989.947 686.625v15.001h-49.405v-15.001h49.405zM1001.18 686.625h34.661c7.105 0 13.212 1.063 18.319 3.192 5.148 2.129 9.105 5.277 11.872 9.447s4.148 9.299 4.148 15.382c0 4.981-0.85 9.257-2.553 12.831-1.658 3.532-4.020 6.49-7.085 8.872-3.020 2.342-6.573 4.214-10.658 5.619l-6.063 3.19h-30.127l-0.129-14.935h22.404c3.362 0 6.148-0.597 8.362-1.787 2.214-1.192 3.872-2.852 4.978-4.981 1.15-2.126 1.723-4.595 1.723-7.403 0-2.978-0.553-5.554-1.658-7.724-1.107-2.17-2.789-3.83-5.044-4.978s-5.085-1.723-8.488-1.723h-15.513v77.935h-19.149v-92.936zM1053.138 779.56l-21.192-41.424 20.236-0.129 21.445 40.659v0.893h-20.489zM1153.671 746.433h-23.683v-14.935h23.683c3.658 0 6.636-0.597 8.935-1.787 2.299-1.235 3.978-2.937 5.044-5.107 1.063-2.17 1.595-4.617 1.595-7.34 0-2.767-0.532-5.342-1.595-7.724-1.065-2.384-2.745-4.299-5.044-5.745s-5.277-2.17-8.935-2.17h-17.044v77.935h-19.149v-92.936h36.193c7.275 0 13.51 1.32 18.702 3.959 5.233 2.595 9.233 6.19 11.998 10.787 2.767 4.595 4.15 9.85 4.15 15.765 0 6-1.383 11.192-4.15 15.574-2.765 4.384-6.765 7.767-11.998 10.151-5.192 2.381-11.427 3.573-18.702 3.573zM1264.095 764.625v14.935h-49.468v-14.935h49.468zM1220.883 686.625v92.936h-19.149v-92.936h19.149zM1257.648 724.476v14.554h-43.021v-14.554h43.021zM1264.032 686.625v15.001h-49.405v-15.001h49.405zM1318.095 686.625v92.936h-19.083v-92.936h19.083zM1346.691 686.625v15.001h-75.828v-15.001h75.828zM1419.968 764.625v14.935h-49.468v-14.935h49.468zM1376.755 686.625v92.936h-19.149v-92.936h19.149zM1413.521 724.476v14.554h-43.021v-14.554h43.021zM1419.905 686.625v15.001h-49.405v-15.001h49.405zM1431.138 686.625h34.659c7.107 0 13.214 1.063 18.321 3.192 5.148 2.129 9.105 5.277 11.872 9.447 2.765 4.17 4.148 9.299 4.148 15.382 0 4.981-0.852 9.257-2.553 12.831-1.66 3.532-4.022 6.49-7.085 8.872-3.022 2.342-6.573 4.214-10.658 5.619l-6.066 3.19h-30.127l-0.126-14.935h22.404c3.362 0 6.148-0.597 8.362-1.787 2.211-1.192 3.872-2.852 4.978-4.981 1.148-2.126 1.723-4.595 1.723-7.403 0-2.978-0.553-5.554-1.66-7.724s-2.787-3.83-5.042-4.978c-2.255-1.148-5.085-1.723-8.49-1.723h-15.51v77.935h-19.149v-92.936zM1483.096 779.56l-21.192-41.424 20.234-0.129 21.447 40.659v0.893h-20.489zM1563.267 755.241c0-1.658-0.257-3.148-0.767-4.466-0.468-1.362-1.362-2.597-2.68-3.704-1.32-1.148-3.17-2.277-5.554-3.381-2.384-1.107-5.469-2.257-9.255-3.447-4.214-1.362-8.214-2.896-12-4.597-3.745-1.702-7.063-3.68-9.957-5.935-2.852-2.299-5.107-4.959-6.767-7.981-1.617-3.020-2.425-6.532-2.425-10.532 0-3.872 0.85-7.382 2.553-10.532 1.702-3.19 4.085-5.913 7.148-8.17 3.063-2.296 6.68-4.063 10.85-5.296 4.214-1.235 8.83-1.852 13.852-1.852 6.85 0 12.831 1.235 17.935 3.702 5.107 2.468 9.063 5.852 11.874 10.151 2.85 4.296 4.275 9.212 4.275 14.743h-19.020c0-2.723-0.575-5.107-1.723-7.148-1.107-2.085-2.808-3.723-5.107-4.915-2.255-1.192-5.107-1.787-8.554-1.787-3.318 0-6.085 0.51-8.297 1.532-2.214 0.978-3.874 2.318-4.978 4.022-1.107 1.658-1.66 3.532-1.66 5.617 0 1.573 0.383 3 1.148 4.277 0.808 1.277 2 2.466 3.575 3.573s3.51 2.15 5.808 3.129c2.299 0.978 4.957 1.935 7.978 2.872 5.063 1.532 9.51 3.255 13.34 5.17 3.872 1.915 7.107 4.063 9.702 6.447 2.597 2.384 4.554 5.085 5.874 8.107 1.318 3.022 1.978 6.447 1.978 10.277 0 4.042-0.789 7.658-2.362 10.85-1.575 3.192-3.852 5.893-6.83 8.107-2.978 2.211-6.532 3.893-10.66 5.042-4.127 1.15-8.743 1.723-13.85 1.723-4.595 0-9.127-0.595-13.595-1.787-4.469-1.233-8.532-3.085-12.192-5.554-3.617-2.468-6.51-5.617-8.68-9.447s-3.255-8.362-3.255-13.595h19.212c0 2.893 0.447 5.34 1.34 7.34s2.148 3.617 3.767 4.852c1.658 1.233 3.617 2.126 5.872 2.68 2.299 0.553 4.808 0.83 7.532 0.83 3.318 0 6.042-0.468 8.17-1.403 2.17-0.937 3.765-2.235 4.787-3.896 1.065-1.658 1.597-3.532 1.597-5.617z"></path>
</svg>
